<?xml version="1.0" encoding="utf-8"?>
<!-- Generator: Adobe Illustrator 15.0.0, SVG Export Plug-In . SVG Version: 6.00 Build 0)  -->
<!DOCTYPE svg PUBLIC "-//W3C//DTD SVG 1.1//EN" "http://www.w3.org/Graphics/SVG/1.1/DTD/svg11.dtd">
<svg version="1.1" id="Camada_1" xmlns="http://www.w3.org/2000/svg" xmlns:xlink="http://www.w3.org/1999/xlink" x="0px" y="0px"
	 width="92px" height="32px" viewBox="0 0 92 32" enable-background="new 0 0 92 32" xml:space="preserve">
<g>
	<rect x="0.071" y="29.75" fill="#FFFFFF" width="7.497" height="1.256"/>
	<rect x="0.071" y="22.557" fill="#FFFFFF" width="7.497" height="1.258"/>
	<rect x="0.071" y="15.37" fill="#FFFFFF" width="7.497" height="1.255"/>
	<rect x="0.071" y="8.179" fill="#FFFFFF" width="7.497" height="1.253"/>
	<rect x="0.071" y="0.982" fill="#FFFFFF" width="7.497" height="1.257"/>
	<rect x="84.438" y="29.76" fill="#FFFFFF" width="7.492" height="1.258"/>
	<rect x="84.438" y="22.57" fill="#FFFFFF" width="7.492" height="1.254"/>
	<rect x="84.438" y="15.38" fill="#FFFFFF" width="7.492" height="1.253"/>
	<rect x="84.438" y="8.187" fill="#FFFFFF" width="7.492" height="1.254"/>
	<rect x="84.438" y="0.992" fill="#FFFFFF" width="7.492" height="1.257"/>
	<polygon fill="#FFFFFF" points="30,1.014 21.999,31.006 13.504,31.006 21.505,1.014 	"/>
	<polygon fill="#FFFFFF" points="58.055,1.014 56.439,7.191 42.101,7.191 40.523,13.066 53.914,13.066 52.215,19.281 38.828,19.281 
		37.296,25.125 51.637,25.125 50.055,31.006 27.226,31.006 35.22,1.014 	"/>
	<polygon fill="#FFFFFF" points="71.441,1.014 65.1,24.791 78.486,24.791 76.828,31.006 54.945,31.006 62.945,1.014 	"/>
</g>
</svg>
