<?xml version="1.0" encoding="utf-8"?>
<!-- Generator: Adobe Illustrator 15.0.0, SVG Export Plug-In . SVG Version: 6.00 Build 0)  -->
<!DOCTYPE svg PUBLIC "-//W3C//DTD SVG 1.1//EN" "http://www.w3.org/Graphics/SVG/1.1/DTD/svg11.dtd">
<svg version="1.1" id="Camada_1" xmlns="http://www.w3.org/2000/svg" xmlns:xlink="http://www.w3.org/1999/xlink" x="0px" y="0px"
	 width="132px" height="32px" viewBox="0 0 132 32" enable-background="new 0 0 132 32" xml:space="preserve">
<g>
	<rect x="0.2" y="29.836" fill="#FFFFFF" width="7.562" height="1.268"/>
	<rect x="0.2" y="22.582" fill="#FFFFFF" width="7.562" height="1.268"/>
	<rect x="0.2" y="15.325" fill="#FFFFFF" width="7.562" height="1.266"/>
	<rect x="0.2" y="8.065" fill="#FFFFFF" width="7.562" height="1.266"/>
	<rect x="0.2" y="0.808" fill="#FFFFFF" width="7.562" height="1.268"/>
	<rect x="124.24" y="29.848" fill="#FFFFFF" width="7.561" height="1.27"/>
	<rect x="124.24" y="22.591" fill="#FFFFFF" width="7.561" height="1.267"/>
	<rect x="124.24" y="15.335" fill="#FFFFFF" width="7.561" height="1.267"/>
	<rect x="124.24" y="8.078" fill="#FFFFFF" width="7.561" height="1.267"/>
	<rect x="124.24" y="0.82" fill="#FFFFFF" width="7.561" height="1.266"/>
	<path fill="#FFFFFF" d="M81.373,21.275c-1.588,5.826,5.592,4.572,7.148,3.547c3.645-2.398,1.205-4.588-0.402-5.256
		c-1.424-0.594-4.156-1.021-7.439-2.194c-6.164-2.204-4.875-7.673-2.51-11.521c2.01-3.273,6.852-4.775,8.727-5.174
		c7.244-1.553,13.103,0.204,14.273,2.363c0.486,0.89,1.652,2.679,0.635,6.671l-8.627-0.086c0.652-2.047-1.023-2.884-1.486-3.019
		c-3.434-1-5.293,1.175-5.518,1.477c-1.586,2.137,0.34,3.608,1.889,3.875c1.25,0.219,6.859,1.049,10.146,3.618
		c0.809,0.631,4,3.839-0.891,10.83c-1.045,1.488-5.101,5.507-13.834,5.507c-2.219,0-6.313,0.153-9.346-2.615
		c-2.402-2.194-1.843-6.192-1.48-7.938l0.049-0.084H81.373L81.373,21.275z"/>
	<path fill="#FFFFFF" d="M22.797,21.275c-1.587,5.826,5.589,4.572,7.151,3.547c3.643-2.398,1.204-4.588-0.404-5.256
		c-1.427-0.594-4.157-1.021-7.445-2.194c-6.156-2.204-4.872-7.673-2.505-11.521c2.008-3.273,6.845-4.775,8.724-5.174
		C35.567-0.876,41.42,0.881,42.595,3.04c0.484,0.89,1.649,2.679,0.633,6.671l-8.629-0.086c0.652-2.047-1.023-2.884-1.48-3.019
		c-3.438-1-5.292,1.175-5.52,1.477c-1.589,2.137,0.344,3.608,1.888,3.875c1.249,0.219,6.858,1.049,10.147,3.618
		c0.805,0.631,3.997,3.839-0.89,10.83c-1.045,1.488-5.101,5.507-13.833,5.507c-2.227,0-6.318,0.153-9.347-2.615
		c-2.403-2.194-1.847-6.192-1.479-7.938l0.042-0.084H22.797L22.797,21.275z"/>
	<polygon fill="#FFFFFF" points="74.334,0.811 72.701,7.046 58.189,7.046 56.597,12.985 70.143,12.985 68.422,19.264 54.878,19.264 
		53.326,25.165 67.836,25.165 66.242,31.105 43.134,31.105 51.23,0.811 	"/>
	<polygon fill="#FFFFFF" points="118.236,0.811 110.141,31.105 101.545,31.105 109.635,0.811 	"/>
</g>
</svg>
