<?xml version="1.0" encoding="utf-8"?>
<!-- Generator: Adobe Illustrator 15.0.0, SVG Export Plug-In . SVG Version: 6.00 Build 0)  -->
<!DOCTYPE svg PUBLIC "-//W3C//DTD SVG 1.1//EN" "http://www.w3.org/Graphics/SVG/1.1/DTD/svg11.dtd">
<svg version="1.1" id="Camada_1" xmlns="http://www.w3.org/2000/svg" xmlns:xlink="http://www.w3.org/1999/xlink" x="0px" y="0px"
	 width="289.94px" height="53.8px" viewBox="0 0 289.94 53.8" enable-background="new 0 0 289.94 53.8" xml:space="preserve">
<g>
	<rect x="-0.001" y="0.001" fill="#FFFFFF" width="289.942" height="53.797"/>
	<rect x="53.572" y="6.142" fill-rule="evenodd" clip-rule="evenodd" fill="#FBC008" width="230.35" height="41.577"/>
	<rect x="5.992" y="6.142" fill-rule="evenodd" clip-rule="evenodd" fill="#008A57" width="41.576" height="41.577"/>
	<g>
		<defs>
			<rect id="SVGID_1_" x="-0.001" y="0.001" width="289.942" height="53.797"/>
		</defs>
		<clipPath id="SVGID_2_">
			<use xlink:href="#SVGID_1_"  overflow="visible"/>
		</clipPath>
		<path clip-path="url(#SVGID_2_)" fill="#FFFFFF" d="M31.649,15.158c-0.093,0.179-0.818,1.427-0.469,2.37
			c0.091,0.239,1.177,0.467,1.508-0.484l1.368-0.014c-0.286,1.025-1.295,1.651-2.503,1.613c-0.428-0.012-2.412,0.129-1.781-2.391
			c0.112-0.444,0.269-0.82,0.462-1.136c0.192-0.313,0.854-1.284,2.518-1.304c2.176-0.024,1.809,1.313,1.749,1.565l-1.364-0.014
			C33.306,14.509,31.956,14.568,31.649,15.158"/>
		<polygon clip-path="url(#SVGID_2_)" fill="#FFFFFF" points="23.488,13.902 23.24,14.853 21.282,14.853 20.995,15.911 
			22.801,15.911 22.56,16.808 20.756,16.808 20.303,18.517 18.995,18.517 20.226,13.902 		"/>
		<polygon clip-path="url(#SVGID_2_)" fill="#FFFFFF" points="25.445,13.902 24.216,18.517 22.909,18.517 24.138,13.902 		"/>
		<polygon clip-path="url(#SVGID_2_)" fill="#FFFFFF" points="29.761,13.902 29.512,14.853 27.306,14.853 27.064,15.758 
			29.123,15.758 28.862,16.712 26.803,16.712 26.566,17.61 28.771,17.61 28.531,18.517 25.02,18.517 26.248,13.902 		"/>
		<path clip-path="url(#SVGID_2_)" fill="#FFFFFF" d="M29.116,24.166c-0.241,0.888,0.85,0.697,1.086,0.539
			c0.556-0.364,0.184-0.7-0.061-0.8c-0.218-0.088-0.632-0.155-1.133-0.334c-0.937-0.334-0.739-1.167-0.379-1.755
			c0.306-0.498,1.04-0.727,1.326-0.787c1.099-0.238,1.987,0.029,2.169,0.359c0.073,0.135,0.25,0.408,0.099,1.016L30.91,22.39
			c0.098-0.312-0.154-0.439-0.226-0.46c-0.521-0.15-0.806,0.181-0.84,0.225c-0.239,0.329,0.053,0.55,0.287,0.591
			c0.191,0.034,1.044,0.16,1.544,0.553c0.12,0.095,0.607,0.583-0.137,1.647c-0.156,0.228-0.773,0.841-2.102,0.841
			c-0.338,0-0.961,0.021-1.421-0.399c-0.366-0.334-0.281-0.944-0.224-1.21l0.003-0.012H29.116z"/>
		<path clip-path="url(#SVGID_2_)" fill="#FFFFFF" d="M20.211,24.166c-0.238,0.888,0.852,0.697,1.089,0.539
			c0.554-0.364,0.183-0.7-0.063-0.8c-0.216-0.088-0.633-0.155-1.133-0.334c-0.933-0.334-0.739-1.167-0.38-1.755
			c0.307-0.498,1.042-0.727,1.328-0.787c1.099-0.238,1.989,0.029,2.169,0.359c0.074,0.135,0.252,0.408,0.095,1.016l-1.31-0.014
			c0.1-0.312-0.158-0.439-0.224-0.46c-0.523-0.15-0.808,0.181-0.843,0.225c-0.237,0.329,0.054,0.55,0.29,0.591
			c0.189,0.034,1.04,0.16,1.541,0.553c0.121,0.095,0.609,0.583-0.136,1.647c-0.159,0.228-0.772,0.841-2.101,0.841
			c-0.341,0-0.962,0.021-1.423-0.399c-0.364-0.334-0.28-0.944-0.227-1.21l0.009-0.012H20.211z"/>
		<polygon clip-path="url(#SVGID_2_)" fill="#FFFFFF" points="28.046,21.047 27.798,21.998 25.593,21.998 25.35,22.904 
			27.41,22.904 27.147,23.859 25.089,23.859 24.854,24.758 27.058,24.758 26.815,25.664 23.305,25.664 24.534,21.047 		"/>
		<polygon clip-path="url(#SVGID_2_)" fill="#FFFFFF" points="34.718,21.047 33.488,25.664 32.184,25.664 33.413,21.047 		"/>
		<path clip-path="url(#SVGID_2_)" fill="#FFFFFF" d="M17.211,31.301c-0.241,0.887,0.847,0.697,1.087,0.541
			c0.554-0.369,0.183-0.699-0.062-0.803c-0.218-0.092-0.633-0.154-1.133-0.332c-0.935-0.338-0.74-1.17-0.382-1.758
			c0.308-0.498,1.043-0.725,1.326-0.787c1.104-0.236,1.99,0.031,2.172,0.359c0.072,0.139,0.253,0.408,0.094,1.018l-1.31-0.016
			c0.099-0.309-0.153-0.436-0.226-0.457c-0.522-0.152-0.805,0.178-0.841,0.225c-0.239,0.326,0.054,0.549,0.288,0.59
			c0.19,0.035,1.043,0.16,1.543,0.551c0.123,0.096,0.608,0.584-0.135,1.65c-0.158,0.229-0.776,0.838-2.102,0.838
			c-0.336,0-0.961,0.025-1.421-0.396c-0.367-0.336-0.28-0.943-0.225-1.211l0.008-0.012H17.211z"/>
		<polygon clip-path="url(#SVGID_2_)" fill="#FFFFFF" points="25.021,28.188 24.769,29.139 22.564,29.139 22.32,30.045 
			24.378,30.045 24.119,30.998 22.062,30.998 21.828,31.9 24.028,31.9 23.789,32.801 20.275,32.801 21.507,28.188 		"/>
		<polygon clip-path="url(#SVGID_2_)" fill="#FFFFFF" points="27.575,28.188 28.223,31.6 29.135,28.188 30.291,28.188 
			29.059,32.801 27.25,32.801 26.617,29.344 25.694,32.801 24.541,32.801 25.77,28.188 		"/>
		<path clip-path="url(#SVGID_2_)" fill="#FFFFFF" d="M34.1,28.188l0.579,4.613h-1.451l-0.084-0.852h-1.803l-0.523,0.852H29.46
			l3.085-4.613H34.1z M33.003,29.139l-1.106,1.859h1.152L33.003,29.139z"/>
		<polygon clip-path="url(#SVGID_2_)" fill="#FFFFFF" points="37.721,28.188 36.489,32.801 35.183,32.801 36.413,28.188 		"/>
		<polygon clip-path="url(#SVGID_2_)" fill="#FFFFFF" points="24.317,35.32 23.087,39.934 21.781,39.934 23.01,35.32 		"/>
		<polygon clip-path="url(#SVGID_2_)" fill="#FFFFFF" points="28.63,35.32 28.383,36.268 26.178,36.268 25.937,37.176 
			27.996,37.176 27.734,38.131 25.673,38.131 25.438,39.029 27.644,39.029 27.401,39.934 23.892,39.934 25.12,35.32 		"/>
		<polygon clip-path="url(#SVGID_2_)" fill="#FFFFFF" points="30.688,35.32 29.717,38.977 31.773,38.977 31.52,39.934 
			28.154,39.934 29.384,35.32 		"/>
		<rect x="11.881" y="40.57" clip-path="url(#SVGID_2_)" fill="#FBC008" width="29.798" height="1.246"/>
		<rect x="11.881" y="33.439" clip-path="url(#SVGID_2_)" fill="#FBC008" width="29.798" height="1.244"/>
		<rect x="11.881" y="26.309" clip-path="url(#SVGID_2_)" fill="#FBC008" width="29.798" height="1.243"/>
		<rect x="11.881" y="19.174" clip-path="url(#SVGID_2_)" fill="#FBC008" width="29.798" height="1.243"/>
		<rect x="11.881" y="12.041" clip-path="url(#SVGID_2_)" fill="#FBC008" width="29.798" height="1.244"/>
		<rect x="53.572" y="40.57" clip-path="url(#SVGID_2_)" fill="#FFFFFF" width="7.434" height="1.246"/>
		<rect x="53.572" y="33.439" clip-path="url(#SVGID_2_)" fill="#FFFFFF" width="7.434" height="1.244"/>
		<rect x="53.572" y="26.309" clip-path="url(#SVGID_2_)" fill="#FFFFFF" width="7.434" height="1.243"/>
		<rect x="53.572" y="19.174" clip-path="url(#SVGID_2_)" fill="#FFFFFF" width="7.434" height="1.243"/>
		<rect x="53.572" y="12.041" clip-path="url(#SVGID_2_)" fill="#FFFFFF" width="7.434" height="1.244"/>
		<rect x="276.486" y="40.582" clip-path="url(#SVGID_2_)" fill="#FFFFFF" width="7.436" height="1.244"/>
		<rect x="276.486" y="33.449" clip-path="url(#SVGID_2_)" fill="#FFFFFF" width="7.436" height="1.246"/>
		<rect x="276.486" y="26.318" clip-path="url(#SVGID_2_)" fill="#FFFFFF" width="7.436" height="1.243"/>
		<rect x="276.486" y="19.184" clip-path="url(#SVGID_2_)" fill="#FFFFFF" width="7.436" height="1.245"/>
		<rect x="276.486" y="12.05" clip-path="url(#SVGID_2_)" fill="#FFFFFF" width="7.436" height="1.247"/>
		<path clip-path="url(#SVGID_2_)" fill="#FFFFFF" d="M82.657,22.93c1.137-4.061-2.17-5.296-5.643-5.296
			c-3.523,0-7.259,1.097-8.293,5.084c-0.386,1.822,0.125,3.359,1.669,4.105c3.319,1.61,6.878,1.122,6.393,3.407
			c-0.235,1.121-1.731,1.682-2.808,1.682c-1.682,0-2.66-0.861-2.303-2.447h-4.664c-0.902,4.568,2.309,5.719,6.229,5.719
			c3.896,0,7.752-1.686,8.508-5.232c0.963-4.549-3.079-4.828-5.75-5.551c-1.167-0.328-2.575-0.724-2.314-1.962
			c0.18-0.838,1.258-1.538,2.333-1.538c0.793,0,1.361,0.186,1.685,0.537c0.344,0.35,0.451,0.837,0.291,1.493H82.657z M87.823,34.826
			h-4.433l2.49-11.71h4.431L87.823,34.826z M90.765,21.108l0.665-3.126h-4.481l-0.662,3.126H90.765z M103.127,26.731
			c0.501-3.241-1.918-3.965-4.691-3.965c-2.332,0-5.581,0.793-6.193,3.686c-0.901,4.247,6.288,3.013,5.845,5.085
			c-0.155,0.746-0.859,1.074-1.72,1.074c-0.422,0-0.74-0.232-0.938-0.535c-0.191-0.305-0.222-0.697-0.077-1.051h-4.199
			c-0.782,3.57,1.895,4.158,4.763,4.158c2.686,0,5.769-0.799,6.432-3.902c0.401-1.914-0.368-2.779-1.672-3.219
			c-2.597-0.863-4.405-0.816-4.219-1.681c0.143-0.677,0.619-1.05,1.271-1.05c0.609,0,0.944,0.162,1.124,0.42
			c0.165,0.232,0.155,0.584,0.075,0.979H103.127z M105.242,23.116l-0.591,2.799h2.287l-1.119,5.249
			c-0.995,3.594,0.736,4.02,3.745,4.02c0.652,0,1.385-0.049,2.431-0.238l0.563-2.637c-0.532,0.07-1.139,0.07-1.72,0.07
			c-1.029,0-0.52-1.516-0.457-1.82l0.987-4.644h2.565l0.594-2.799h-2.564l0.736-3.451l-4.793,1.678l-0.378,1.773H105.242z
			 M127.236,29.861h-8.397c-0.347,1.518-0.228,2.818,1.426,2.818c1.239,0,2.13-0.58,2.528-1.678h4.109
			c-0.464,1.516-1.656,2.611-2.911,3.27c-1.167,0.654-2.528,0.912-3.903,0.912c-4.689,0-6.129-2.014-5.154-6.605
			c0.789-3.712,4.011-5.812,7.535-5.812C127.228,22.766,128.167,25.494,127.236,29.861 M119.438,27.478h4.108
			c0.13-0.629,0.082-1.258-0.168-1.749c-0.246-0.491-0.692-0.792-1.382-0.746C120.439,25.051,119.837,26.148,119.438,27.478
			 M135.205,23.116h-4.39c-0.15,1.259-0.275,1.96-0.497,3.009l-1.852,8.701h4.437l1.424-6.717c0.03-0.14,0.261-2.545,2.457-2.545
			c1.374,0,1.395,1.237,1.196,2.381l-1.463,6.88h4.434l1.427-6.717c0.031-0.14,0.261-2.545,2.453-2.545
			c1.38,0,1.397,1.237,1.2,2.381l-1.465,6.88H149l1.668-7.837c0.551-2.589-0.965-4.223-3.49-4.223
			c-1.761,0.045-3.536,0.838-4.631,2.241c-0.185-1.424-1.637-2.17-3.06-2.17c-1.749,0-3.422,0.603-4.578,2.214h-0.045
			L135.205,23.116z M156.236,31.072c0.178-0.816,0.779-1.236,1.502-1.564c0.666-0.305,1.549-0.256,2.479-0.256
			c-0.328,1.564-0.875,3.359-2.789,3.359C156.586,32.611,156.057,31.912,156.236,31.072 M163.441,34.826
			c0.139-1.396,0.154-1.912,0.252-2.404l1.285-6.017c0.607-2.634-2.049-3.639-4.432-3.639c-1.307,0-2.852,0.138-4.184,0.699
			c-1.305,0.537-2.371,1.493-2.697,3.15h4.17c0.127-0.701,0.703-1.75,1.787-1.798c1.789-0.068,1.234,1.424,1.02,2.451h-1.402
			c-3.828,0-6.688,1.166-7.338,4.013c-0.559,2.402,0.57,3.902,3.348,3.902c2.193,0,3.43-1.104,4.146-1.943h0.045
			c-0.178,0.84-0.256,1.219-0.242,1.586H163.441z"/>
		<path clip-path="url(#SVGID_2_)" fill="#FFFFFF" d="M251.943,20.132c-0.596,1.154-5.281,9.216-3.02,15.302
			c0.578,1.545,7.605,3.02,9.736-3.133l8.834-0.078c-1.842,6.621-8.363,10.658-16.166,10.414
			c-2.758-0.082-15.582,0.84-11.496-15.436c0.711-2.871,1.73-5.301,2.971-7.335c1.246-2.029,5.525-8.299,16.262-8.42
			c14.047-0.151,11.676,8.469,11.305,10.095l-8.82-0.081C262.65,15.951,253.932,16.316,251.943,20.132"/>
		<polygon clip-path="url(#SVGID_2_)" fill="#FFFFFF" points="199.236,12.018 197.641,18.151 184.996,18.151 183.137,24.984 
			194.797,24.984 193.232,30.785 181.588,30.785 178.666,41.813 170.219,41.813 178.166,12.018 		"/>
		<polygon clip-path="url(#SVGID_2_)" fill="#FFFFFF" points="211.883,12.018 203.938,41.813 195.49,41.813 203.438,12.018 		"/>
		<polygon clip-path="url(#SVGID_2_)" fill="#FFFFFF" points="239.752,12.018 238.137,18.151 223.896,18.151 222.33,24 235.633,24 
			233.953,30.172 220.648,30.172 219.115,35.971 233.355,35.971 231.807,41.813 209.121,41.813 217.068,12.018 		"/>
	</g>
</g>
</svg>
