<?xml version="1.0" encoding="utf-8"?>
<!-- Generator: Adobe Illustrator 15.0.0, SVG Export Plug-In . SVG Version: 6.00 Build 0)  -->
<!DOCTYPE svg PUBLIC "-//W3C//DTD SVG 1.1//EN" "http://www.w3.org/Graphics/SVG/1.1/DTD/svg11.dtd">
<svg version="1.1" id="Camada_1" xmlns="http://www.w3.org/2000/svg" xmlns:xlink="http://www.w3.org/1999/xlink" x="0px" y="0px"
	 width="170px" height="32px" viewBox="0 0 170 32" enable-background="new 0 0 170 32" xml:space="preserve">
<g>
	<rect x="-0.107" y="29.799" fill="#FFFFFF" width="7.531" height="1.264"/>
	<rect x="-0.107" y="22.574" fill="#FFFFFF" width="7.531" height="1.262"/>
	<rect x="-0.107" y="15.349" fill="#FFFFFF" width="7.531" height="1.258"/>
	<rect x="-0.107" y="8.122" fill="#FFFFFF" width="7.531" height="1.262"/>
	<rect x="-0.107" y="0.895" fill="#FFFFFF" width="7.531" height="1.262"/>
	<rect x="162.576" y="29.799" fill="#FFFFFF" width="7.531" height="1.264"/>
	<rect x="162.576" y="22.574" fill="#FFFFFF" width="7.531" height="1.262"/>
	<rect x="162.576" y="15.349" fill="#FFFFFF" width="7.531" height="1.258"/>
	<rect x="162.576" y="8.122" fill="#FFFFFF" width="7.531" height="1.262"/>
	<rect x="162.576" y="0.895" fill="#FFFFFF" width="7.531" height="1.262"/>
	<path fill="#FFFFFF" d="M22.443,21.256c-1.574,5.805,5.559,4.559,7.109,3.529c3.625-2.391,1.196-4.563-0.401-5.23
		c-1.419-0.594-4.133-1.021-7.401-2.188c-6.123-2.194-4.846-7.645-2.494-11.478c2.002-3.262,6.813-4.759,8.677-5.156
		c7.206-1.547,13.028,0.202,14.196,2.355c0.48,0.886,1.641,2.669,0.629,6.645l-8.58-0.085c0.653-2.046-1.012-2.872-1.47-3.006
		c-3.418-1-5.267,1.168-5.49,1.467c-1.58,2.134,0.338,3.596,1.875,3.865c1.245,0.215,6.823,1.042,10.089,3.606
		c0.809,0.631,3.982,3.823-0.884,10.792c-1.037,1.482-5.07,5.484-13.753,5.484c-2.215,0-6.284,0.151-9.295-2.605
		c-2.392-2.188-1.836-6.17-1.474-7.907l0.045-0.085L22.443,21.256L22.443,21.256z"/>
	<polygon fill="#FFFFFF" points="73.087,0.904 71.466,7.115 57.039,7.115 55.45,13.038 68.916,13.038 67.208,19.293 53.739,19.293 
		52.198,25.172 66.623,25.172 65.041,31.092 42.068,31.092 50.112,0.904 	"/>
	<polygon fill="#FFFFFF" points="89.207,0.904 93.463,23.211 99.426,0.904 106.973,0.904 98.92,31.092 87.082,31.092 82.955,8.457 
		76.91,31.092 69.361,31.092 77.41,0.904 	"/>
	<path fill="#FFFFFF" d="M132.674,0.904l3.793,30.188h-9.504l-0.541-5.592h-11.805l-3.42,5.592h-8.877L122.5,0.904H132.674z
		 M125.5,7.115l-7.254,12.178h7.549L125.5,7.115z"/>
	<polygon fill="#FFFFFF" points="156.57,0.904 148.523,31.092 139.979,31.092 148.023,0.904 	"/>
</g>
</svg>
