<?xml version="1.0" encoding="utf-8"?>
<!-- Generator: Adobe Illustrator 15.0.0, SVG Export Plug-In . SVG Version: 6.00 Build 0)  -->
<!DOCTYPE svg PUBLIC "-//W3C//DTD SVG 1.0//EN" "http://www.w3.org/TR/2001/REC-SVG-20010904/DTD/svg10.dtd">
<svg version="1.0" id="Camada_1" xmlns="http://www.w3.org/2000/svg" xmlns:xlink="http://www.w3.org/1999/xlink" x="0px" y="0px"
	 width="150.21px" height="27.47px" viewBox="0 0 150.21 27.47" enable-background="new 0 0 150.21 27.47" xml:space="preserve">
<g>
	<g>
		<path fill="#414141" d="M17.361,3.361c-0.079,0.158-0.716,1.252-0.411,2.081c0.081,0.211,1.036,0.412,1.326-0.425l1.2-0.011
			c-0.251,0.9-1.137,1.449-2.197,1.417c-0.376-0.011-2.119,0.113-1.563-2.101c0.096-0.39,0.233-0.72,0.403-0.996
			c0.169-0.276,0.751-1.128,2.212-1.146c1.909-0.02,1.586,1.152,1.536,1.375l-1.199-0.011C18.818,2.792,17.632,2.842,17.361,3.361"
			/>
		<polygon fill="#414141" points="10.195,2.258 9.979,3.091 8.26,3.091 8.008,4.021 9.593,4.021 9.379,4.81 7.796,4.81 7.399,6.308 
			6.25,6.308 7.33,2.258 		"/>
		<polygon fill="#414141" points="11.916,2.258 10.835,6.308 9.688,6.308 10.767,2.258 		"/>
		<polygon fill="#414141" points="15.705,2.258 15.485,3.091 13.549,3.091 13.337,3.887 15.145,3.887 14.916,4.726 13.106,4.726 
			12.899,5.514 14.836,5.514 14.626,6.308 11.539,6.308 12.619,2.258 		"/>
		<path fill="#414141" d="M15.141,11.271c-0.214,0.778,0.742,0.611,0.952,0.473c0.488-0.32,0.16-0.614-0.054-0.703
			c-0.191-0.078-0.556-0.135-0.993-0.292c-0.824-0.295-0.651-1.026-0.334-1.542c0.268-0.438,0.913-0.639,1.164-0.691
			c0.966-0.207,1.746,0.027,1.905,0.316c0.063,0.117,0.221,0.357,0.085,0.893l-1.152-0.013c0.086-0.274-0.136-0.385-0.197-0.404
			c-0.46-0.133-0.708,0.157-0.738,0.197c-0.211,0.288,0.046,0.483,0.252,0.519c0.168,0.03,0.917,0.14,1.355,0.485
			c0.107,0.084,0.533,0.513-0.119,1.447c-0.138,0.2-0.679,0.738-1.847,0.738c-0.295,0-0.843,0.02-1.247-0.351
			c-0.321-0.294-0.248-0.83-0.197-1.062l0.004-0.011H15.141z"/>
		<path fill="#414141" d="M7.318,11.271c-0.21,0.778,0.746,0.611,0.956,0.473c0.486-0.32,0.159-0.614-0.056-0.703
			c-0.189-0.078-0.556-0.135-0.995-0.292c-0.818-0.295-0.649-1.026-0.332-1.542C7.158,8.77,7.806,8.568,8.057,8.516
			C9.021,8.31,9.804,8.543,9.963,8.833c0.063,0.117,0.222,0.357,0.082,0.893l-1.15-0.013c0.088-0.274-0.138-0.385-0.196-0.404
			C8.239,9.176,7.989,9.466,7.959,9.506c-0.21,0.288,0.047,0.483,0.253,0.519c0.168,0.03,0.916,0.14,1.356,0.485
			c0.105,0.084,0.531,0.513-0.12,1.447c-0.141,0.2-0.681,0.738-1.847,0.738c-0.298,0-0.844,0.02-1.25-0.351
			c-0.316-0.294-0.245-0.83-0.198-1.062l0.008-0.011H7.318z"/>
		<polygon fill="#414141" points="14.197,8.535 13.979,9.368 12.045,9.368 11.832,10.164 13.64,10.164 13.41,11.003 11.604,11.003 
			11.397,11.792 13.33,11.792 13.117,12.586 10.035,12.586 11.114,8.535 		"/>
		<polygon fill="#414141" points="20.059,8.535 18.978,12.586 17.831,12.586 18.911,8.535 		"/>
		<path fill="#414141" d="M4.683,17.537c-0.211,0.778,0.746,0.61,0.955,0.474c0.486-0.321,0.16-0.613-0.054-0.702
			c-0.191-0.082-0.556-0.138-0.993-0.295c-0.822-0.295-0.65-1.026-0.337-1.539c0.269-0.44,0.916-0.642,1.167-0.694
			c0.967-0.207,1.745,0.029,1.904,0.316c0.063,0.12,0.222,0.358,0.083,0.891l-1.149-0.011c0.086-0.273-0.137-0.384-0.197-0.402
			c-0.46-0.134-0.709,0.156-0.74,0.196c-0.21,0.288,0.047,0.484,0.253,0.519c0.168,0.03,0.916,0.142,1.356,0.485
			c0.106,0.083,0.533,0.513-0.119,1.448c-0.139,0.201-0.682,0.734-1.847,0.734c-0.297,0-0.843,0.023-1.247-0.348
			c-0.322-0.294-0.246-0.827-0.197-1.063l0.006-0.01H4.683z"/>
		<polygon fill="#414141" points="11.541,14.804 11.32,15.639 9.385,15.639 9.172,16.433 10.979,16.433 10.75,17.272 8.944,17.272 
			8.738,18.062 10.671,18.062 10.46,18.855 7.374,18.855 8.455,14.804 		"/>
		<polygon fill="#414141" points="13.784,14.804 14.353,17.799 15.154,14.804 16.17,14.804 15.087,18.855 13.5,18.855 
			12.942,15.818 12.134,18.855 11.121,18.855 12.199,14.804 		"/>
		<path fill="#414141" d="M19.515,14.806l0.508,4.049h-1.273l-0.074-0.748h-1.584l-0.458,0.748H15.44l2.709-4.049H19.515z
			 M18.552,15.639l-0.973,1.634h1.013L18.552,15.639z"/>
		<polygon fill="#414141" points="22.695,14.804 21.614,18.855 20.467,18.855 21.547,14.804 		"/>
		<polygon fill="#414141" points="10.926,21.066 9.845,25.12 8.698,25.12 9.776,21.066 		"/>
		<polygon fill="#414141" points="14.712,21.066 14.495,21.899 12.56,21.899 12.347,22.695 14.154,22.695 13.925,23.535 
			12.115,23.535 11.909,24.324 13.847,24.324 13.634,25.12 10.551,25.12 11.629,21.066 		"/>
		<polygon fill="#414141" points="16.521,21.066 15.666,24.278 17.474,24.278 17.249,25.12 14.293,25.12 15.374,21.066 		"/>
		<rect x="0.003" y="25.677" fill="#414141" width="26.168" height="1.094"/>
		<rect x="0.003" y="19.416" fill="#414141" width="26.168" height="1.092"/>
		<rect x="0.003" y="13.152" fill="#414141" width="26.168" height="1.093"/>
		<rect x="0.003" y="6.886" fill="#414141" width="26.168" height="1.094"/>
		<rect x="0.003" y="0.622" fill="#414141" width="26.168" height="1.094"/>
		<rect x="36.615" y="25.677" fill="#414141" width="6.527" height="1.094"/>
		<rect x="36.615" y="19.416" fill="#414141" width="6.527" height="1.092"/>
		<rect x="36.615" y="13.152" fill="#414141" width="6.527" height="1.093"/>
		<rect x="36.615" y="6.886" fill="#414141" width="6.527" height="1.094"/>
		<rect x="36.615" y="0.622" fill="#414141" width="6.527" height="1.094"/>
		<rect x="143.682" y="25.688" fill="#414141" width="6.525" height="1.094"/>
		<rect x="143.682" y="19.424" fill="#414141" width="6.525" height="1.092"/>
		<rect x="143.682" y="13.161" fill="#414141" width="6.525" height="1.093"/>
		<rect x="143.682" y="6.896" fill="#414141" width="6.525" height="1.094"/>
		<rect x="143.682" y="0.632" fill="#414141" width="6.525" height="1.093"/>
		<path fill="#414141" d="M106.68,18.288c-1.369,5.028,4.828,3.946,6.172,3.062c3.145-2.069,1.039-3.959-0.348-4.536
			c-1.232-0.513-3.588-0.882-6.422-1.894c-5.318-1.902-4.209-6.624-2.166-9.944c1.734-2.826,5.914-4.123,7.531-4.466
			c6.254-1.341,11.309,0.174,12.32,2.039c0.422,0.769,1.426,2.313,0.547,5.758l-7.445-0.075c0.563-1.768-0.883-2.489-1.281-2.604
			c-2.963-0.863-4.568,1.013-4.762,1.274c-1.369,1.845,0.293,3.113,1.629,3.345c1.078,0.188,5.92,0.906,8.756,3.122
			c0.697,0.545,3.455,3.313-0.768,9.348c-0.9,1.285-4.4,4.753-11.939,4.753c-1.916,0-5.449,0.132-8.064-2.259
			c-2.074-1.895-1.594-5.344-1.281-6.85l0.041-0.073H106.68z"/>
		<path fill="#414141" d="M56.122,18.288c-1.371,5.028,4.823,3.946,6.172,3.062c3.145-2.069,1.038-3.959-0.349-4.536
			c-1.231-0.513-3.589-0.882-6.427-1.894c-5.313-1.902-4.206-6.624-2.161-9.944c1.733-2.826,5.908-4.123,7.528-4.466
			c6.258-1.341,11.309,0.174,12.323,2.039c0.419,0.769,1.425,2.313,0.547,5.758l-7.448-0.075c0.562-1.768-0.884-2.489-1.278-2.604
			c-2.967-0.863-4.568,1.013-4.765,1.274c-1.371,1.845,0.297,3.113,1.63,3.345c1.078,0.188,5.92,0.906,8.76,3.122
			c0.695,0.545,3.449,3.313-0.769,9.348c-0.902,1.285-4.402,4.753-11.939,4.753c-1.921,0-5.454,0.132-8.068-2.259
			c-2.074-1.895-1.594-5.344-1.276-6.85l0.036-0.073H56.122z"/>
		<polygon fill="#414141" points="100.604,0.625 99.195,6.007 86.672,6.007 85.295,11.133 96.986,11.133 95.502,16.551 
			83.813,16.551 82.473,21.645 94.996,21.645 93.619,26.773 73.676,26.773 80.664,0.625 		"/>
		<polygon fill="#414141" points="138.5,0.625 131.512,26.773 124.094,26.773 131.078,0.625 		"/>
	</g>
</g>
</svg>
